<svg xmlns="http://www.w3.org/2000/svg" fill="none" viewBox="0 0 24 24" id="Raspberry-Pi--Streamline-Svg-Logos" height="24" width="24">
  <desc>
    Raspberry Pi Streamline Icon: https://streamlinehq.com
  </desc>
  <path fill="#000000" d="M8.17565 0.2503325c-0.118825 0.003665 -0.246775 0.0475875 -0.391975 0.162095 -0.35555 -0.13708 -0.700375 -0.1847385 -1.008675 0.0943825 -0.476075 -0.0617475 -0.630775 0.0657025 -0.748025 0.2145 -0.1045 -0.002155 -0.782 -0.107465 -1.09275 0.3560375 -0.7808 -0.09237 -1.027575 0.45926 -0.74795 0.9737275 -0.1595 0.2468475 -0.324775 0.49075 0.04815 0.961425 -0.1319 0.2621 -0.0501 0.546475 0.26065 0.890575 -0.082 0.36855 0.079225 0.628475 0.3684 0.8311 -0.054125 0.504275 0.462425 0.797475 0.616625 0.901925 0.059225 0.2938 0.18265 0.571125 0.7726 0.724375 0.097325 0.4379 0.45185 0.513525 0.79525 0.6054 -1.134825 0.659675 -2.107975 1.5275 -2.101375 3.65705l-0.16625 0.296525c-1.301225 0.791275 -2.471925 3.33465 -0.6412 5.40185 0.119525 0.6471 0.3201 1.1119 0.49865 1.6263 0.26705 2.072825 2.01 3.04345 2.46975 3.15825 0.673625 0.5131 1.3911 0.999975 2.362025 1.34105C10.38475 23.3908 11.3763 23.750575 12.37325 23.75c0.014675 0 2.03265 -0.359125 2.947925 -1.3031 0.970875 -0.341075 1.688325 -0.82795 2.362025 -1.34105 0.459675 -0.1148 2.202625 -1.085425 2.469675 -3.15825 0.178575 -0.5144 0.379125 -0.9792 0.498725 -1.6263 1.830575 -2.067425 0.659975 -4.61085 -0.641275 -5.40215l-0.166475 -0.296525c0.006625 -2.129325 -0.966525 -2.997225 -2.10135 -3.65705 0.3433 -0.09185 0.6979 -0.167475 0.795175 -0.6054 0.589925 -0.153325 0.713425 -0.430575 0.7726 -0.72435 0.15425 -0.10445 0.670725 -0.397675 0.616675 -0.901925 0.289125 -0.20265 0.45035 -0.46265 0.368325 -0.831125 0.310825 -0.3441 0.39255 -0.628475 0.26065 -0.890625 0.373 -0.4704 0.207525 -0.7143 0.048225 -0.961145 0.2795 -0.5144675 0.032875 -1.06617 -0.748225 -0.97373 -0.3106 -0.4635025 -0.98795 -0.358265 -1.09275 -0.3561075 -0.117175 -0.1487275 -0.271875 -0.276175 -0.74795 -0.2144275 -0.3083 -0.279123 -0.653075 -0.2315375 -1.008675 -0.0943825 -0.422225 -0.333179 -0.70165 -0.0661325 -1.0208 0.0348625 -0.511175 -0.1670575 -0.628125 0.0617475 -0.879275 0.15498 -0.557525 -0.1178175 -0.72695 0.1386625 -0.994225 0.409375l-0.3109 -0.0061825c-0.840875 0.4955625 -1.258675 1.5046575 -1.40675 2.0234325 -0.14815 -0.51885 -0.564925 -1.5279425 -1.405675 -2.0234325l-0.310875 0.0061825c-0.267625 -0.2707125 -0.437 -0.5271925 -0.994525 -0.409375 -0.251225 -0.0932325 -0.36775 -0.3220375 -0.879325 -0.15498 -0.209475 -0.066275 -0.402125 -0.20400425 -0.628925 -0.19696L2.403565 10.3855" stroke-width="0.25"></path>
  <path fill="#75a928" d="M6.501475 2.4304375C8.73245 3.58065 10.02945 4.5111 10.74 5.303525c-0.363875 1.45845 -2.26215 1.525 -2.95625 1.4841 0.1421 -0.066125 0.2607 -0.1454 0.30275 -0.2671 -0.174175 -0.1238 -0.7917 -0.0131 -1.222875 -0.255275 0.165625 -0.03435 0.243125 -0.067775 0.320525 -0.189975 -0.407275 -0.1299 -0.84605 -0.2419 -1.104125 -0.4571 0.13925 0.001725 0.269275 0.0312 0.45115 -0.094975 -0.3648 -0.1966 -0.754125 -0.352425 -1.0566 -0.652975 0.1886 -0.0046 0.391975 -0.001875 0.451125 -0.07125 -0.3339 -0.206875 -0.615675 -0.4369 -0.848875 -0.68855 0.263975 0.03185 0.37545 0.00445 0.4393 -0.04155 -0.252475 -0.258575 -0.571925 -0.476875 -0.724225 -0.795475 0.19595 0.067575 0.3753 0.09345 0.50455 -0.005875 -0.085775 -0.193525 -0.453225 -0.307675 -0.66485 -0.759875 0.206375 0.02005 0.425175 0.045 0.46895 0 -0.09575 -0.39019 -0.260075 -0.6095775 -0.421225 -0.8368725 0.441575 -0.0065425 1.110675 0.001725 1.0804 -0.0355825l-0.273075 -0.2789775c0.43135 -0.1161625 0.872725 0.0186175 1.193175 0.1186775 0.14385 -0.1135025 -0.002575 -0.2570525 -0.178125 -0.4036225 0.3666 0.0489525 0.69785 0.1332 0.9973 0.24929 0.15995 -0.1444125 -0.10385 -0.2888975 -0.231525 -0.43331 0.566375 0.1073925 0.8063 0.25842 1.04475 0.40959 0.173025 -0.165835 0.009925 -0.3067975 -0.106825 -0.45114 0.42705 0.1581425 0.647025 0.3623625 0.87855 0.5639225 0.0785 -0.105955 0.199475 -0.18366 0.053425 -0.4392775 0.3032 0.17475 0.531575 0.380695 0.7005 0.6114375 0.1876 -0.1194675 0.111775 -0.2827875 0.112775 -0.4333825 0.31515 0.256335 0.515125 0.5291325 0.759875 0.79546 0.049325 -0.0359425 0.09245 -0.15764 0.130625 -0.350215 0.751675 0.7292525 1.8139 2.5662275 0.273 3.2945525 -1.31135 -1.08155 -2.87755 -1.86775 -4.613175 -2.457475l0.0005 -0.0002875Z" stroke-width="0.25"></path>
  <path fill="#75a928" d="M18.339125 2.43046C16.10845 3.5808 14.81145 4.510975 14.10095 5.30355c0.363875 1.45845 2.2621 1.525 2.9562 1.4841 -0.1421 -0.066125 -0.260725 -0.145425 -0.3027 -0.267125 0.174175 -0.123775 0.791725 -0.013075 1.2228 -0.25525 -0.165625 -0.03435 -0.243025 -0.067775 -0.320525 -0.189975 0.407375 -0.1299 0.84615 -0.2419 1.104125 -0.4571 -0.139225 0.001725 -0.269275 0.031175 -0.451125 -0.094975 0.364875 -0.1966 0.7542 -0.352425 1.056675 -0.652975 -0.1887 -0.0046 -0.39205 -0.001875 -0.45115 -0.07125 0.3339 -0.206875 0.615675 -0.4369 0.848875 -0.68855 -0.264025 0.031825 -0.37545 0.00445 -0.439275 -0.04155 0.252375 -0.258575 0.5719 -0.476875 0.724225 -0.795475 -0.196025 0.067575 -0.375375 0.09345 -0.504625 -0.005875 0.08575 -0.193525 0.4533 -0.307675 0.66485 -0.7599 -0.2063 0.020075 -0.4252 0.045 -0.468975 0 0.095975 -0.3903125 0.2603 -0.6097 0.42145 -0.836995 -0.441575 -0.00654 -1.11065 0.001725 -1.0804 -0.0355825l0.2731 -0.27905c-0.431375 -0.11609 -0.87275 0.01869 -1.1932 0.1187525 -0.143825 -0.113505 0.002525 -0.257055 0.17805 -0.403625 -0.366525 0.04888 -0.697825 0.1332 -0.997225 0.24929 -0.160025 -0.1444125 0.103875 -0.2888975 0.231525 -0.43331 -0.56635 0.1073925 -0.8063 0.25842 -1.044825 0.40959 -0.173 -0.165835 -0.009825 -0.3067975 0.1069 -0.45114 -0.42705 0.158145 -0.647025 0.362365 -0.87855 0.563925 -0.078575 -0.1059575 -0.199475 -0.1836625 -0.053475 -0.4392775 -0.30315 0.1747475 -0.531525 0.3806925 -0.70045 0.6114375 -0.1876 -0.11947 -0.111775 -0.28286 -0.112775 -0.433385 -0.315125 0.256335 -0.5151 0.52906 -0.759875 0.79546 -0.0493 -0.0359425 -0.09245 -0.15764 -0.1306 -0.3502875 -0.7517 0.7293275 -1.8139 2.5662975 -0.273025 3.2946225 1.31065 -1.08185 2.876775 -1.867875 4.61245 -2.457615h-0.000275Z" stroke-width="0.25"></path>
  <path fill="#bc1142" d="M15.1223 17.281525c0.00775 1.36095 -1.1824 2.47005 -2.65825 2.47715 -1.4759 0.0072 -2.67865 -1.09025 -2.6864 -2.4512 -0.000075 -0.008625 -0.000075 -0.01725 0 -0.02595 -0.007775 -1.3609 1.182325 -2.469975 2.658225 -2.477175 1.4759 -0.007175 2.678575 1.09025 2.686425 2.451225v0.02595Z" stroke-width="0.25"></path>
  <path fill="#bc1142" d="M10.90345 10.242c1.107275 0.725525 1.3069 2.369925 0.4458 3.672875 -0.861075 1.303025 -2.45675 1.771275 -3.564025 1.045825 -1.1073 -0.725525 -1.30685 -2.369925 -0.445825 -3.672875 0.8611 -1.303025 2.45675 -1.771275 3.56405 -1.045825Z" stroke-width="0.25"></path>
  <path fill="#bc1142" d="M13.892125 10.110525c-1.1072 0.72545 -1.306825 2.369925 -0.4458 3.672875 0.861075 1.303025 2.45675 1.771275 3.564025 1.04575 1.1073 -0.72545 1.3069 -2.369825 0.445825 -3.67285 -0.861025 -1.302975 -2.456675 -1.7712 -3.56405 -1.045775Z" stroke-width="0.25"></path>
  <path fill="#bc1142" d="M5.369225 11.428125c1.195475 -0.32045 0.403625 4.945775 -0.5691 4.513675 -1.069975 -0.860575 -1.4146 -3.380875 0.5691 -4.513675Z" stroke-width="0.25"></path>
  <path fill="#bc1142" d="M19.184825 11.36245c-1.195625 -0.320375 -0.403625 4.94605 0.5691 4.513975 1.069975 -0.860675 1.414575 -3.38125 -0.5691 -4.513975Z" stroke-width="0.25"></path>
  <path fill="#bc1142" d="M15.123325 7.44055c2.0631 -0.348325 3.779825 0.877425 3.710525 3.11455 -0.06785 0.857725 -4.470625 -2.9868 -3.710525 -3.11455Z" stroke-width="0.25"></path>
  <path fill="#bc1142" d="M9.422775 7.375025c-2.063275 -0.348425 -3.77985 0.877625 -3.71055 3.114625 0.067875 0.857625 4.4707 -2.9869 3.71055 -3.114625Z" stroke-width="0.25"></path>
  <path fill="#bc1142" d="M12.386225 6.85345c-1.231375 -0.03205 -2.413125 0.91385 -2.416 1.46255 -0.003375 0.666625 0.973575 1.349225 2.4244 1.36655 1.4815 0.010575 2.426925 -0.546375 2.43165 -1.234375 0.005475 -0.7795 -1.347425 -1.606725 -2.44005 -1.594725Z" stroke-width="0.25"></path>
  <path fill="#bc1142" d="M12.4616 20.52395c1.073575 -0.046875 2.514125 0.34575 2.517 0.866675 0.017825 0.505775 -1.306475 1.648575 -2.58815 1.6265 -1.3274 0.0573 -2.628975 -1.0873 -2.61195 -1.484025 -0.0199 -0.581675 1.616225 -1.035825 2.6831 -1.00915Z" stroke-width="0.25"></path>
  <path fill="#bc1142" d="M8.495975 17.437125c0.76435 0.920825 1.112825 2.538625 0.47495 3.015575 -0.603475 0.364075 -2.06895 0.214125 -3.110525 -1.282275 -0.702525 -1.25565 -0.612025 -2.533375 -0.11875 -2.90875 0.737575 -0.44925 1.877225 0.15765 2.7544 1.17545h-0.000075Z" stroke-width="0.25"></path>
  <path fill="#bc1142" d="M16.273675 17.145325c-0.827 0.968625 -1.2875 2.735375 -0.68425 3.3044 0.57685 0.442075 2.125375 0.38025 3.269175 -1.20685 0.830525 -1.06595 0.552275 -2.84615 0.07785 -3.31885 -0.70475 -0.545075 -1.7165 0.15255 -2.662775 1.221v0.0003Z" stroke-width="0.25"></path>
</svg>